<?xml version="1.0" encoding="UTF-8" standalone="no"?>
<!DOCTYPE svg PUBLIC "-//W3C//DTD SVG 1.1//EN"
 "http://www.w3.org/Graphics/SVG/1.1/DTD/svg11.dtd">
<!-- Generated by graphviz version 2.43.0 (0)
 -->
<!-- Title: %3 Pages: 1 -->
<svg width="495pt" height="576pt"
 viewBox="0.00 0.00 494.54 576.00" xmlns="http://www.w3.org/2000/svg" xmlns:xlink="http://www.w3.org/1999/xlink">
<g id="graph0" class="graph" transform="scale(0.81 0.81) rotate(0) translate(4 706.48)">
<title>%3</title>
<polygon fill="white" stroke="transparent" points="-4,4 -4,-706.48 606,-706.48 606,4 -4,4"/>
<g id="clust1" class="cluster">
<title>cluster_GFPGAN</title>
<polygon fill="none" stroke="black" stroke-dasharray="5,2" points="358,-240.61 358,-694.48 587,-694.48 587,-240.61 358,-240.61"/>
<text text-anchor="middle" x="472.5" y="-680.88" font-family="Arial" font-size="12.00">GFPGAN Internals (Base Architecture)</text>
</g>
<!-- A -->
<g id="node1" class="node">
<title>A</title>
<polygon fill="lightblue" stroke="black" points="219.5,-664.48 216.5,-668.48 195.5,-668.48 192.5,-664.48 148.5,-664.48 148.5,-628.48 219.5,-628.48 219.5,-664.48"/>
<text text-anchor="middle" x="184" y="-642.78" font-family="Times,serif" font-size="14.00">Input GIF</text>
</g>
<!-- B -->
<g id="node2" class="node">
<title>B</title>
<polygon fill="lightgrey" stroke="black" points="240,-576.48 128,-576.48 128,-572.48 124,-572.48 124,-568.48 128,-568.48 128,-546.48 124,-546.48 124,-542.48 128,-542.48 128,-538.48 240,-538.48 240,-576.48"/>
<polyline fill="none" stroke="black" points="128,-572.48 132,-572.48 132,-568.48 128,-568.48 "/>
<polyline fill="none" stroke="black" points="128,-546.48 132,-546.48 132,-542.48 128,-542.48 "/>
<text text-anchor="middle" x="184" y="-561.28" font-family="Times,serif" font-size="14.00">Frame Extraction</text>
<text text-anchor="middle" x="184" y="-546.28" font-family="Times,serif" font-size="14.00">(PIL)</text>
</g>
<!-- A&#45;&gt;B -->
<g id="edge6" class="edge">
<title>A&#45;&gt;B</title>
<path fill="none" stroke="black" d="M184,-628.29C184,-616.49 184,-600.55 184,-586.88"/>
<polygon fill="black" stroke="black" points="187.5,-586.53 184,-576.53 180.5,-586.53 187.5,-586.53"/>
</g>
<!-- C -->
<g id="node3" class="node">
<title>C</title>
<polygon fill="lightyellow" stroke="black" points="190,-487.48 4,-487.48 0,-483.48 0,-434.48 186,-434.48 190,-438.48 190,-487.48"/>
<polyline fill="none" stroke="black" points="186,-483.48 0,-483.48 "/>
<polyline fill="none" stroke="black" points="186,-483.48 186,-434.48 "/>
<polyline fill="none" stroke="black" points="186,-483.48 190,-487.48 "/>
<text text-anchor="middle" x="95" y="-472.28" font-family="Times,serif" font-size="14.00">GFPGAN Module</text>
<text text-anchor="middle" x="95" y="-457.28" font-family="Times,serif" font-size="14.00">(Base Paper)</text>
<text text-anchor="middle" x="95" y="-442.28" font-family="Times,serif" font-size="14.00">U&#45;Net + CS&#45;SFT + StyleGAN2</text>
</g>
<!-- B&#45;&gt;C -->
<g id="edge7" class="edge">
<title>B&#45;&gt;C</title>
<path fill="none" stroke="black" d="M166.84,-538.26C155.31,-526.02 139.79,-509.54 126.12,-495.02"/>
<polygon fill="black" stroke="black" points="128.58,-492.53 119.17,-487.65 123.48,-497.33 128.58,-492.53"/>
<text text-anchor="middle" x="180" y="-509.28" font-family="Times,serif" font-size="14.00">Face ROIs</text>
</g>
<!-- D -->
<g id="node4" class="node">
<title>D</title>
<polygon fill="lightyellow" stroke="black" points="347.5,-479.98 212.5,-479.98 208.5,-475.98 208.5,-441.98 343.5,-441.98 347.5,-445.98 347.5,-479.98"/>
<polyline fill="none" stroke="black" points="343.5,-475.98 208.5,-475.98 "/>
<polyline fill="none" stroke="black" points="343.5,-475.98 343.5,-441.98 "/>
<polyline fill="none" stroke="black" points="343.5,-475.98 347.5,-479.98 "/>
<text text-anchor="middle" x="278" y="-464.78" font-family="Times,serif" font-size="14.00">Real&#45;ESRGAN</text>
<text text-anchor="middle" x="278" y="-449.78" font-family="Times,serif" font-size="14.00">(Background Upscale)</text>
</g>
<!-- B&#45;&gt;D -->
<g id="edge8" class="edge">
<title>B&#45;&gt;D</title>
<path fill="none" stroke="black" d="M202.12,-538.26C216.43,-523.88 236.56,-503.64 252.49,-487.62"/>
<polygon fill="black" stroke="black" points="255.36,-489.7 259.93,-480.14 250.4,-484.77 255.36,-489.7"/>
<text text-anchor="middle" x="272" y="-509.28" font-family="Times,serif" font-size="14.00">Whole Frame</text>
</g>
<!-- E -->
<g id="node5" class="node">
<title>E</title>
<polygon fill="white" stroke="black" points="268,-383.48 100,-383.48 100,-345.48 268,-345.48 268,-383.48"/>
<text text-anchor="middle" x="184" y="-368.28" font-family="Times,serif" font-size="14.00">Merge Restored Face + BG</text>
<text text-anchor="middle" x="184" y="-353.28" font-family="Times,serif" font-size="14.00">(Alpha Blending)</text>
</g>
<!-- C&#45;&gt;E -->
<g id="edge9" class="edge">
<title>C&#45;&gt;E</title>
<path fill="none" stroke="black" d="M119.32,-434.16C131.97,-420.73 147.38,-404.37 159.98,-390.98"/>
<polygon fill="black" stroke="black" points="162.73,-393.17 167.04,-383.49 157.63,-388.37 162.73,-393.17"/>
<text text-anchor="middle" x="190" y="-405.28" font-family="Times,serif" font-size="14.00">Restored Face</text>
</g>
<!-- D&#45;&gt;E -->
<g id="edge10" class="edge">
<title>D&#45;&gt;E</title>
<path fill="none" stroke="black" d="M265.63,-441.83C256.94,-429.74 244.66,-413.85 232,-401.48 227.95,-397.52 223.45,-393.62 218.89,-389.93"/>
<polygon fill="black" stroke="black" points="220.71,-386.92 210.66,-383.55 216.42,-392.45 220.71,-386.92"/>
<text text-anchor="middle" x="284" y="-405.28" font-family="Times,serif" font-size="14.00">Enhanced BG</text>
</g>
<!-- F -->
<g id="node6" class="node">
<title>F</title>
<ellipse fill="lightgreen" stroke="black" cx="184" cy="-267.61" rx="91.43" ry="26.74"/>
<text text-anchor="middle" x="184" y="-271.41" font-family="Times,serif" font-size="14.00">RAFT Optical Flow</text>
<text text-anchor="middle" x="184" y="-256.41" font-family="Times,serif" font-size="14.00">(Motion Estimation)</text>
</g>
<!-- E&#45;&gt;F -->
<g id="edge11" class="edge">
<title>E&#45;&gt;F</title>
<path fill="none" stroke="black" d="M184,-345.19C184,-333.78 184,-318.69 184,-304.92"/>
<polygon fill="black" stroke="black" points="187.5,-304.74 184,-294.74 180.5,-304.74 187.5,-304.74"/>
</g>
<!-- G -->
<g id="node7" class="node">
<title>G</title>
<ellipse fill="lightgreen" stroke="black" cx="184" cy="-176.87" rx="75.82" ry="26.74"/>
<text text-anchor="middle" x="184" y="-180.67" font-family="Times,serif" font-size="14.00">Frame Warping</text>
<text text-anchor="middle" x="184" y="-165.67" font-family="Times,serif" font-size="14.00">(Temporal Loss)</text>
</g>
<!-- F&#45;&gt;G -->
<g id="edge12" class="edge">
<title>F&#45;&gt;G</title>
<path fill="none" stroke="black" d="M184,-240.47C184,-232.16 184,-222.82 184,-213.95"/>
<polygon fill="black" stroke="black" points="187.5,-213.83 184,-203.83 180.5,-213.83 187.5,-213.83"/>
</g>
<!-- H -->
<g id="node8" class="node">
<title>H</title>
<polygon fill="lightblue" stroke="black" points="262.5,-113 259.5,-117 238.5,-117 235.5,-113 105.5,-113 105.5,-75 262.5,-75 262.5,-113"/>
<text text-anchor="middle" x="184" y="-97.8" font-family="Times,serif" font-size="14.00">Re&#45;encode Enhanced GIF</text>
<text text-anchor="middle" x="184" y="-82.8" font-family="Times,serif" font-size="14.00">(PIL/ImageIO)</text>
</g>
<!-- G&#45;&gt;H -->
<g id="edge13" class="edge">
<title>G&#45;&gt;H</title>
<path fill="none" stroke="black" d="M184,-149.84C184,-141.3 184,-131.78 184,-123.1"/>
<polygon fill="black" stroke="black" points="187.5,-123.05 184,-113.05 180.5,-123.05 187.5,-123.05"/>
</g>
<!-- I -->
<g id="node9" class="node">
<title>I</title>
<polygon fill="mistyrose" stroke="black" points="269,-38 93,-38 93,0 275,0 275,-32 269,-38"/>
<polyline fill="none" stroke="black" points="269,-38 269,-32 "/>
<polyline fill="none" stroke="black" points="275,-32 269,-32 "/>
<text text-anchor="middle" x="184" y="-22.8" font-family="Times,serif" font-size="14.00">Metrics: PSNR, SSIM, LPIPS</text>
<text text-anchor="middle" x="184" y="-7.8" font-family="Times,serif" font-size="14.00">(Perceptual &amp; Temporal)</text>
</g>
<!-- H&#45;&gt;I -->
<g id="edge14" class="edge">
<title>H&#45;&gt;I</title>
<path fill="none" stroke="black" d="M184,-74.96C184,-66.88 184,-57.18 184,-48.18"/>
<polygon fill="black" stroke="black" points="187.5,-48.09 184,-38.09 180.5,-48.09 187.5,-48.09"/>
</g>
<!-- C1 -->
<g id="node10" class="node">
<title>C1</title>
<polygon fill="lightyellow" stroke="black" points="540.5,-665.48 403.5,-665.48 403.5,-627.48 540.5,-627.48 540.5,-665.48"/>
<text text-anchor="middle" x="472" y="-650.28" font-family="Times,serif" font-size="14.00">Degradation Removal</text>
<text text-anchor="middle" x="472" y="-635.28" font-family="Times,serif" font-size="14.00">(U&#45;Net)</text>
</g>
<!-- C2 -->
<g id="node11" class="node">
<title>C2</title>
<polygon fill="lightyellow" stroke="black" points="503.5,-576.48 366.5,-576.48 366.5,-538.48 503.5,-538.48 503.5,-576.48"/>
<text text-anchor="middle" x="435" y="-561.28" font-family="Times,serif" font-size="14.00">Latent Code Mapping</text>
<text text-anchor="middle" x="435" y="-546.28" font-family="Times,serif" font-size="14.00">(MLP)</text>
</g>
<!-- C1&#45;&gt;C2 -->
<g id="edge1" class="edge">
<title>C1&#45;&gt;C2</title>
<path fill="none" stroke="black" d="M446.24,-627.4C440.87,-622.28 435.96,-616.23 433,-609.48 429.92,-602.45 429.16,-594.34 429.49,-586.68"/>
<polygon fill="black" stroke="black" points="432.98,-586.97 430.51,-576.67 426.01,-586.26 432.98,-586.97"/>
<text text-anchor="middle" x="475.5" y="-598.28" font-family="Times,serif" font-size="14.00">Latent Features</text>
</g>
<!-- C4 -->
<g id="node13" class="node">
<title>C4</title>
<polygon fill="lightyellow" stroke="black" points="529,-383.48 401,-383.48 401,-345.48 529,-345.48 529,-383.48"/>
<text text-anchor="middle" x="465" y="-368.28" font-family="Times,serif" font-size="14.00">CS&#45;SFT Layers</text>
<text text-anchor="middle" x="465" y="-353.28" font-family="Times,serif" font-size="14.00">(Channel&#45;Split SFT)</text>
</g>
<!-- C1&#45;&gt;C4 -->
<g id="edge3" class="edge">
<title>C1&#45;&gt;C4</title>
<path fill="none" stroke="black" d="M503.24,-627.39C509.2,-622.4 514.62,-616.41 518,-609.48 520.92,-603.49 518.3,-601.14 518,-594.48 514.13,-507.69 518.26,-482.54 487,-401.48 485.81,-398.4 484.37,-395.3 482.78,-392.27"/>
<polygon fill="black" stroke="black" points="485.77,-390.44 477.76,-383.5 479.7,-393.92 485.77,-390.44"/>
<text text-anchor="middle" x="558" y="-509.28" font-family="Times,serif" font-size="14.00">Spatial Features</text>
</g>
<!-- C3 -->
<g id="node12" class="node">
<title>C3</title>
<polygon fill="lightyellow" stroke="black" points="472.5,-479.98 365.5,-479.98 365.5,-441.98 472.5,-441.98 472.5,-479.98"/>
<text text-anchor="middle" x="419" y="-464.78" font-family="Times,serif" font-size="14.00">Generative Prior</text>
<text text-anchor="middle" x="419" y="-449.78" font-family="Times,serif" font-size="14.00">(StyleGAN2)</text>
</g>
<!-- C2&#45;&gt;C3 -->
<g id="edge2" class="edge">
<title>C2&#45;&gt;C3</title>
<path fill="none" stroke="black" d="M400.59,-538.45C394.31,-533.51 388.61,-527.53 385,-520.48 379.48,-509.7 383.92,-498.11 391.2,-488.11"/>
<polygon fill="black" stroke="black" points="394.12,-490.07 397.82,-480.15 388.74,-485.6 394.12,-490.07"/>
<text text-anchor="middle" x="427" y="-509.28" font-family="Times,serif" font-size="14.00">Latent Code W</text>
</g>
<!-- C3&#45;&gt;C4 -->
<g id="edge4" class="edge">
<title>C3&#45;&gt;C4</title>
<path fill="none" stroke="black" d="M409.65,-441.85C404.8,-429.76 401.17,-413.88 408,-401.48 410.35,-397.22 413.44,-393.39 416.96,-389.97"/>
<polygon fill="black" stroke="black" points="419.27,-392.6 424.72,-383.51 414.79,-387.22 419.27,-392.6"/>
<text text-anchor="middle" x="447.5" y="-405.28" font-family="Times,serif" font-size="14.00">GAN Features</text>
</g>
<!-- C5 -->
<g id="node14" class="node">
<title>C5</title>
<polygon fill="lightyellow" stroke="black" points="538,-286.61 392,-286.61 392,-248.61 538,-248.61 538,-286.61"/>
<text text-anchor="middle" x="465" y="-271.41" font-family="Times,serif" font-size="14.00">Facial Component Loss</text>
<text text-anchor="middle" x="465" y="-256.41" font-family="Times,serif" font-size="14.00">+ Identity Loss</text>
</g>
<!-- C4&#45;&gt;C5 -->
<g id="edge5" class="edge">
<title>C4&#45;&gt;C5</title>
<path fill="none" stroke="black" d="M465,-345.19C465,-331.54 465,-312.63 465,-297.02"/>
<polygon fill="black" stroke="black" points="468.5,-296.85 465,-286.85 461.5,-296.85 468.5,-296.85"/>
<text text-anchor="middle" x="504" y="-316.28" font-family="Times,serif" font-size="14.00">Restored Face</text>
</g>
</g>
</svg>
